<svg xmlns="http://www.w3.org/2000/svg" viewBox="0 0 480 125" width="100%" height="auto">

    <defs>
      <!-- Gradient Palettes: Cyber Aurora (Crisp Vibrant Cyan -> Emerald) -->
      <linearGradient id="titleGrad" x1="0%" y1="0%" x2="100%" y2="0%">
        <stop offset="0%" stop-color="#00f2fe" />
        <stop offset="100%" stop-color="#38ef7d" />
      </linearGradient>
      <linearGradient id="cyanGrad" x1="0%" y1="0%" x2="100%" y2="0%">
        <stop offset="0%" stop-color="#00f2fe" />
        <stop offset="100%" stop-color="#4facfe" />
      </linearGradient>
      <linearGradient id="purpleGrad" x1="0%" y1="0%" x2="100%" y2="0%">
        <stop offset="0%" stop-color="#c084fc" />
        <stop offset="100%" stop-color="#a855f7" />
      </linearGradient>
      <linearGradient id="cardBg" x1="0%" y1="0%" x2="100%" y2="100%">
        <stop offset="0%" stop-color="#0f172a" />
        <stop offset="50%" stop-color="#090d16" />
        <stop offset="100%" stop-color="#070a10" />
      </linearGradient>
      <linearGradient id="cardBorder" x1="0%" y1="0%" x2="100%" y2="100%">
        <stop offset="0%" stop-color="rgba(0, 242, 254, 0.45)" />
        <stop offset="50%" stop-color="rgba(56, 239, 125, 0.3)" />
        <stop offset="100%" stop-color="rgba(192, 132, 252, 0.4)" />
      </linearGradient>
      <linearGradient id="ringGrad" x1="0%" y1="0%" x2="100%" y2="100%">
        <stop offset="0%" stop-color="#00f2fe" />
        <stop offset="60%" stop-color="#38ef7d" />
        <stop offset="100%" stop-color="#c084fc" />
      </linearGradient>
      
      <!-- Subtle Glow Filter -->
      <filter id="neonGlow" x="-20%" y="-20%" width="140%" height="140%">
        <feGaussianBlur stdDeviation="3.5" result="blur" />
        <feComposite in="SourceGraphic" in2="blur" operator="over" />
      </filter>
      <filter id="softGlow" x="-20%" y="-20%" width="140%" height="140%">
        <feGaussianBlur stdDeviation="2" result="blur" />
        <feComposite in="SourceGraphic" in2="blur" operator="over" />
      </filter>

      <style>
        .card-frame { fill: url(#cardBg); stroke: url(#cardBorder); stroke-width: 1.5px; rx: 18px; ry: 18px; }
      </style>
    </defs>
    
<rect width="480" height="125" class="card-frame" />

      <g transform="translate(24, 20)">
        <path d="M4 19.5A2.5 2.5 0 0 1 6.5 17H20" fill="none" stroke="#00f2fe" stroke-width="2" />
        <path d="M6.5 2H20v20H6.5A2.5 2.5 0 0 1 4 19.5v-15A2.5 2.5 0 0 1 6.5 2z" fill="none" stroke="#00f2fe" stroke-width="2" />
      </g>
    
<path d="M 59.26 38.25 Q 58.33 38.25 57.59 37.92 Q 56.86 37.60 56.43 36.98 Q 56.00 36.35 56.00 35.46 Q 56.00 34.57 56.43 33.97 Q 56.86 33.36 57.62 33.06 Q 58.38 32.75 59.36 32.75 L 61.74 32.75 L 61.74 32.26 Q 61.74 31.65 61.35 31.25 Q 60.97 30.86 60.13 30.86 Q 59.31 30.86 58.90 31.24 Q 58.50 31.61 58.38 32.21 L 56.35 31.52 Q 56.56 30.86 57.02 30.31 Q 57.49 29.76 58.27 29.42 Q 59.05 29.08 60.16 29.08 Q 61.88 29.08 62.88 29.93 Q 63.88 30.79 63.88 32.42 L 63.88 35.65 Q 63.88 36.18 64.36 36.18 L 65.06 36.18 L 65.06 38.00 L 63.60 38.00 Q 62.95 38.00 62.53 37.69 Q 62.11 37.37 62.11 36.85 L 62.11 36.83 L 61.77 36.83 Q 61.71 37.04 61.46 37.38 Q 61.21 37.72 60.69 37.98 Q 60.16 38.25 59.26 38.25 Z M 59.64 36.46 Q 60.57 36.46 61.15 35.94 Q 61.74 35.43 61.74 34.57 L 61.74 34.40 L 59.52 34.40 Q 58.91 34.40 58.56 34.66 Q 58.21 34.92 58.21 35.39 Q 58.21 35.86 58.57 36.16 Q 58.94 36.46 59.64 36.46 Z M 70.21 38.25 Q 68.51 38.25 67.43 37.51 Q 66.34 36.77 66.11 35.41 L 68.14 34.89 Q 68.27 35.50 68.55 35.85 Q 68.84 36.20 69.27 36.35 Q 69.70 36.50 70.21 36.50 Q 70.98 36.50 71.35 36.23 Q 71.71 35.95 71.71 35.55 Q 71.71 35.15 71.36 34.93 Q 71.01 34.71 70.24 34.57 L 69.75 34.48 Q 68.84 34.31 68.09 34.00 Q 67.34 33.70 66.88 33.15 Q 66.43 32.61 66.43 31.75 Q 66.43 30.46 67.37 29.77 Q 68.32 29.08 69.86 29.08 Q 71.31 29.08 72.28 29.72 Q 73.24 30.37 73.53 31.42 L 71.49 32.05 Q 71.35 31.39 70.92 31.11 Q 70.49 30.82 69.86 30.82 Q 69.23 30.82 68.90 31.04 Q 68.56 31.26 68.56 31.65 Q 68.56 32.07 68.91 32.27 Q 69.26 32.47 69.86 32.58 L 70.35 32.66 Q 71.33 32.84 72.12 33.13 Q 72.92 33.41 73.39 33.95 Q 73.85 34.48 73.85 35.39 Q 73.85 36.76 72.86 37.50 Q 71.87 38.25 70.21 38.25 Z M 75.78 38.00 L 75.78 25.75 L 77.98 25.75 L 77.98 32.52 L 78.30 32.52 L 81.16 29.32 L 84.04 29.32 L 80.03 33.52 L 84.17 38.00 L 81.34 38.00 L 78.30 34.55 L 77.98 34.55 L 77.98 38.00 L 75.78 38.00 Z M 85.22 38.00 L 85.22 35.97 L 86.84 35.97 L 86.84 27.78 L 85.22 27.78 L 85.22 25.75 L 90.27 25.75 Q 92.73 25.75 94.02 27.00 Q 95.31 28.25 95.31 30.72 L 95.31 33.03 Q 95.31 35.50 94.02 36.75 Q 92.73 38.00 90.27 38.00 L 85.22 38.00 Z M 89.15 35.90 L 90.30 35.90 Q 91.70 35.90 92.35 35.16 Q 93.00 34.43 93.00 33.10 L 93.00 30.65 Q 93.00 29.30 92.35 28.58 Q 91.70 27.85 90.30 27.85 L 89.15 27.85 L 89.15 35.90 Z M 96.49 38.00 L 96.49 35.97 L 98.10 35.97 L 98.10 27.78 L 96.49 27.78 L 96.49 25.75 L 102.79 25.75 Q 103.91 25.75 104.75 26.13 Q 105.58 26.50 106.04 27.19 Q 106.50 27.89 106.50 28.85 L 106.50 29.02 Q 106.50 29.86 106.19 30.40 Q 105.88 30.93 105.45 31.22 Q 105.02 31.51 104.63 31.63 L 104.63 31.95 Q 105.02 32.05 105.47 32.34 Q 105.93 32.63 106.25 33.17 Q 106.57 33.71 106.57 34.59 L 106.57 34.76 Q 106.57 35.78 106.10 36.50 Q 105.63 37.23 104.80 37.61 Q 103.97 38.00 102.86 38.00 L 96.49 38.00 Z M 100.41 35.90 L 102.59 35.90 Q 103.34 35.90 103.80 35.53 Q 104.26 35.16 104.26 34.48 L 104.26 34.31 Q 104.26 33.62 103.81 33.26 Q 103.35 32.89 102.59 32.89 L 100.41 32.89 L 100.41 35.90 Z M 100.41 30.79 L 102.55 30.79 Q 103.27 30.79 103.73 30.42 Q 104.19 30.05 104.19 29.41 L 104.19 29.23 Q 104.19 28.57 103.74 28.21 Q 103.29 27.85 102.55 27.85 L 100.41 27.85 L 100.41 30.79 Z" fill="url(#titleGrad)" />
<path d="M 24.00 66.00 L 24.00 56.90 L 25.04 56.90 L 29.85 63.18 L 29.85 56.90 L 31.34 56.90 L 31.34 66.00 L 30.30 66.00 L 25.49 59.72 L 25.49 66.00 L 24.00 66.00 Z M 35.74 66.13 Q 34.90 66.13 34.21 65.70 Q 33.53 65.27 33.13 64.54 Q 32.74 63.80 32.74 62.89 Q 32.74 61.97 33.13 61.24 Q 33.53 60.50 34.21 60.07 Q 34.90 59.63 35.74 59.63 Q 36.34 59.63 36.83 59.85 Q 37.31 60.07 37.65 60.45 L 37.65 59.76 L 39.08 59.76 L 39.08 66.00 L 37.65 66.00 L 37.65 65.32 Q 37.31 65.70 36.83 65.92 Q 36.34 66.13 35.74 66.13 Z M 35.97 64.78 Q 36.77 64.78 37.25 64.25 Q 37.74 63.71 37.74 62.88 Q 37.74 62.03 37.25 61.51 Q 36.77 60.98 35.97 60.98 Q 35.19 60.98 34.70 61.51 Q 34.21 62.03 34.21 62.88 Q 34.21 63.71 34.70 64.25 Q 35.19 64.78 35.97 64.78 Z M 41.62 66.00 L 41.62 61.06 L 40.12 61.06 L 40.12 59.76 L 41.62 59.76 L 41.62 57.16 L 43.05 57.16 L 43.05 59.76 L 44.54 59.76 L 44.54 61.06 L 43.05 61.06 L 43.05 66.00 L 41.62 66.00 Z M 48.14 66.13 Q 47.35 66.13 46.73 65.78 Q 46.11 65.43 45.77 64.81 Q 45.43 64.19 45.43 63.39 L 45.43 59.76 L 46.86 59.76 L 46.86 63.32 Q 46.86 64.00 47.19 64.38 Q 47.53 64.75 48.14 64.75 Q 48.77 64.75 49.10 64.38 Q 49.43 64.01 49.43 63.32 L 49.43 59.76 L 50.86 59.76 L 50.86 63.39 Q 50.86 64.21 50.51 64.82 Q 50.17 65.44 49.56 65.79 Q 48.95 66.13 48.14 66.13 Z M 52.30 66.00 L 52.30 59.76 L 53.73 59.76 L 53.73 60.41 Q 53.99 60.05 54.40 59.84 Q 54.81 59.63 55.36 59.63 Q 56.28 59.63 56.90 60.34 L 55.97 61.31 Q 55.63 60.97 55.11 60.97 Q 54.51 60.97 54.12 61.35 Q 53.73 61.72 53.73 62.53 L 53.73 66.00 L 52.30 66.00 Z M 60.02 66.13 Q 59.18 66.13 58.50 65.70 Q 57.81 65.27 57.42 64.54 Q 57.02 63.80 57.02 62.89 Q 57.02 61.97 57.42 61.24 Q 57.81 60.50 58.50 60.07 Q 59.18 59.63 60.02 59.63 Q 60.62 59.63 61.11 59.85 Q 61.60 60.07 61.94 60.45 L 61.94 59.76 L 63.37 59.76 L 63.37 66.00 L 61.94 66.00 L 61.94 65.32 Q 61.60 65.70 61.11 65.92 Q 60.62 66.13 60.02 66.13 Z M 60.26 64.78 Q 61.05 64.78 61.54 64.25 Q 62.03 63.71 62.03 62.88 Q 62.03 62.03 61.54 61.51 Q 61.05 60.98 60.26 60.98 Q 59.48 60.98 58.98 61.51 Q 58.49 62.03 58.49 62.88 Q 58.49 63.71 58.98 64.25 Q 59.48 64.78 60.26 64.78 Z M 64.95 66.00 L 64.95 56.64 L 66.38 56.64 L 66.38 66.00 L 64.95 66.00 Z M 70.57 66.00 L 70.57 56.64 L 72.00 56.64 L 72.00 66.00 L 70.57 66.00 Z M 76.20 66.13 Q 75.35 66.13 74.67 65.70 Q 73.99 65.27 73.59 64.54 Q 73.19 63.80 73.19 62.89 Q 73.19 61.97 73.59 61.24 Q 73.99 60.50 74.67 60.07 Q 75.35 59.63 76.20 59.63 Q 76.79 59.63 77.28 59.85 Q 77.77 60.07 78.11 60.45 L 78.11 59.76 L 79.54 59.76 L 79.54 66.00 L 78.11 66.00 L 78.11 65.32 Q 77.77 65.70 77.28 65.92 Q 76.79 66.13 76.20 66.13 Z M 76.43 64.78 Q 77.22 64.78 77.71 64.25 Q 78.20 63.71 78.20 62.88 Q 78.20 62.03 77.71 61.51 Q 77.22 60.98 76.43 60.98 Q 75.65 60.98 75.16 61.51 Q 74.66 62.03 74.66 62.88 Q 74.66 63.71 75.16 64.25 Q 75.65 64.78 76.43 64.78 Z M 81.12 66.00 L 81.12 59.76 L 82.55 59.76 L 82.55 60.48 Q 82.88 60.07 83.36 59.85 Q 83.84 59.63 84.41 59.63 Q 85.11 59.63 85.66 59.99 Q 86.21 60.34 86.52 60.91 Q 86.83 61.48 86.83 62.09 L 86.83 66.00 L 85.40 66.00 L 85.40 62.40 Q 85.40 61.77 85.00 61.37 Q 84.61 60.97 83.98 60.97 Q 83.36 60.97 82.95 61.37 Q 82.55 61.77 82.55 62.40 L 82.55 66.00 L 81.12 66.00 Z M 90.82 65.87 Q 89.99 65.87 89.32 65.46 Q 88.65 65.05 88.27 64.34 Q 87.88 63.62 87.88 62.74 Q 87.88 61.85 88.27 61.15 Q 88.65 60.45 89.32 60.04 Q 89.99 59.63 90.82 59.63 Q 91.43 59.63 91.92 59.84 Q 92.42 60.05 92.75 60.42 L 92.75 59.76 L 94.18 59.76 L 94.18 65.74 Q 94.18 66.64 93.76 67.31 Q 93.34 67.98 92.60 68.35 Q 91.86 68.73 90.88 68.73 Q 89.90 68.73 89.16 68.37 Q 88.41 68.02 87.96 67.36 L 88.90 66.43 Q 89.27 66.90 89.75 67.13 Q 90.23 67.36 90.91 67.36 Q 91.76 67.36 92.25 66.93 Q 92.75 66.49 92.75 65.74 L 92.75 65.06 Q 92.42 65.44 91.92 65.66 Q 91.43 65.87 90.82 65.87 Z M 91.11 64.52 Q 91.89 64.52 92.36 64.03 Q 92.83 63.54 92.83 62.75 Q 92.83 61.94 92.36 61.46 Q 91.89 60.98 91.11 60.98 Q 90.33 60.98 89.84 61.47 Q 89.35 61.96 89.35 62.75 Q 89.35 63.54 89.84 64.03 Q 90.33 64.52 91.11 64.52 Z M 98.32 66.13 Q 97.53 66.13 96.91 65.78 Q 96.29 65.43 95.95 64.81 Q 95.61 64.19 95.61 63.39 L 95.61 59.76 L 97.04 59.76 L 97.04 63.32 Q 97.04 64.00 97.37 64.38 Q 97.71 64.75 98.32 64.75 Q 98.94 64.75 99.28 64.38 Q 99.61 64.01 99.61 63.32 L 99.61 59.76 L 101.04 59.76 L 101.04 63.39 Q 101.04 64.21 100.69 64.82 Q 100.35 65.44 99.74 65.79 Q 99.13 66.13 98.32 66.13 Z M 105.10 66.13 Q 104.25 66.13 103.57 65.70 Q 102.89 65.27 102.49 64.54 Q 102.09 63.80 102.09 62.89 Q 102.09 61.97 102.49 61.24 Q 102.89 60.50 103.57 60.07 Q 104.25 59.63 105.10 59.63 Q 105.69 59.63 106.18 59.85 Q 106.67 60.07 107.01 60.45 L 107.01 59.76 L 108.44 59.76 L 108.44 66.00 L 107.01 66.00 L 107.01 65.32 Q 106.67 65.70 106.18 65.92 Q 105.69 66.13 105.10 66.13 Z M 105.33 64.78 Q 106.12 64.78 106.61 64.25 Q 107.10 63.71 107.10 62.88 Q 107.10 62.03 106.61 61.51 Q 106.12 60.98 105.33 60.98 Q 104.55 60.98 104.06 61.51 Q 103.56 62.03 103.56 62.88 Q 103.56 63.71 104.06 64.25 Q 104.55 64.78 105.33 64.78 Z M 112.56 65.87 Q 111.73 65.87 111.06 65.46 Q 110.39 65.05 110.00 64.34 Q 109.62 63.62 109.62 62.74 Q 109.62 61.85 110.00 61.15 Q 110.39 60.45 111.06 60.04 Q 111.73 59.63 112.56 59.63 Q 113.17 59.63 113.66 59.84 Q 114.16 60.05 114.48 60.42 L 114.48 59.76 L 115.91 59.76 L 115.91 65.74 Q 115.91 66.64 115.50 67.31 Q 115.08 67.98 114.34 68.35 Q 113.60 68.73 112.62 68.73 Q 111.63 68.73 110.89 68.37 Q 110.15 68.02 109.70 67.36 L 110.63 66.43 Q 111.01 66.90 111.49 67.13 Q 111.97 67.36 112.65 67.36 Q 113.49 67.36 113.99 66.93 Q 114.48 66.49 114.48 65.74 L 114.48 65.06 Q 114.16 65.44 113.66 65.66 Q 113.17 65.87 112.56 65.87 Z M 112.84 64.52 Q 113.62 64.52 114.10 64.03 Q 114.57 63.54 114.57 62.75 Q 114.57 61.94 114.10 61.46 Q 113.62 60.98 112.84 60.98 Q 112.06 60.98 111.58 61.47 Q 111.09 61.96 111.09 62.75 Q 111.09 63.54 111.58 64.03 Q 112.06 64.52 112.84 64.52 Z M 120.40 66.13 Q 119.46 66.13 118.71 65.71 Q 117.97 65.28 117.53 64.54 Q 117.09 63.80 117.09 62.88 Q 117.09 61.96 117.52 61.22 Q 117.95 60.49 118.69 60.06 Q 119.42 59.63 120.32 59.63 Q 121.19 59.63 121.86 60.03 Q 122.53 60.44 122.91 61.14 Q 123.30 61.84 123.30 62.74 Q 123.30 63.02 123.22 63.41 L 118.56 63.41 Q 118.72 64.05 119.20 64.42 Q 119.68 64.79 120.38 64.79 Q 120.86 64.79 121.27 64.62 Q 121.68 64.45 121.97 64.13 L 122.88 65.05 Q 122.42 65.58 121.77 65.86 Q 121.12 66.13 120.40 66.13 Z M 120.29 60.94 Q 119.63 60.94 119.17 61.29 Q 118.72 61.63 118.56 62.24 L 121.89 62.24 Q 121.62 60.94 120.29 60.94 Z M 127.77 58.62 Q 127.40 58.62 127.16 58.37 Q 126.92 58.12 126.92 57.76 Q 126.92 57.39 127.16 57.15 Q 127.40 56.90 127.77 56.90 Q 128.14 56.90 128.38 57.15 Q 128.61 57.39 128.61 57.76 Q 128.61 58.12 128.38 58.37 Q 128.14 58.62 127.77 58.62 Z M 127.05 66.00 L 127.05 59.76 L 128.48 59.76 L 128.48 66.00 L 127.05 66.00 Z M 130.08 66.00 L 130.08 59.76 L 131.51 59.76 L 131.51 60.48 Q 131.84 60.07 132.32 59.85 Q 132.80 59.63 133.37 59.63 Q 134.07 59.63 134.62 59.99 Q 135.17 60.34 135.48 60.91 Q 135.79 61.48 135.79 62.09 L 135.79 66.00 L 134.36 66.00 L 134.36 62.40 Q 134.36 61.77 133.96 61.37 Q 133.57 60.97 132.94 60.97 Q 132.32 60.97 131.91 61.37 Q 131.51 61.77 131.51 62.40 L 131.51 66.00 L 130.08 66.00 Z M 138.12 66.00 L 138.12 61.06 L 136.62 61.06 L 136.62 59.76 L 138.12 59.76 L 138.12 57.16 L 139.55 57.16 L 139.55 59.76 L 141.04 59.76 L 141.04 61.06 L 139.55 61.06 L 139.55 66.00 L 138.12 66.00 Z M 144.80 66.13 Q 143.86 66.13 143.11 65.71 Q 142.37 65.28 141.93 64.54 Q 141.50 63.80 141.50 62.88 Q 141.50 61.96 141.92 61.22 Q 142.35 60.49 143.09 60.06 Q 143.82 59.63 144.72 59.63 Q 145.59 59.63 146.26 60.03 Q 146.93 60.44 147.31 61.14 Q 147.70 61.84 147.70 62.74 Q 147.70 63.02 147.62 63.41 L 142.96 63.41 Q 143.12 64.05 143.60 64.42 Q 144.08 64.79 144.78 64.79 Q 145.27 64.79 145.67 64.62 Q 146.08 64.45 146.37 64.13 L 147.28 65.05 Q 146.83 65.58 146.18 65.86 Q 145.53 66.13 144.80 66.13 Z M 144.69 60.94 Q 144.03 60.94 143.58 61.29 Q 143.12 61.63 142.96 62.24 L 146.29 62.24 Q 146.02 60.94 144.69 60.94 Z M 148.84 66.00 L 148.84 59.76 L 150.27 59.76 L 150.27 60.41 Q 150.53 60.05 150.94 59.84 Q 151.35 59.63 151.90 59.63 Q 152.82 59.63 153.44 60.34 L 152.51 61.31 Q 152.17 60.97 151.65 60.97 Q 151.05 60.97 150.66 61.35 Q 150.27 61.72 150.27 62.53 L 150.27 66.00 L 148.84 66.00 Z M 155.02 66.00 L 155.02 61.06 L 153.52 61.06 L 153.52 59.76 L 155.02 59.76 L 155.02 58.94 Q 155.02 58.23 155.33 57.68 Q 155.65 57.13 156.22 56.82 Q 156.78 56.51 157.53 56.51 Q 158.10 56.51 158.50 56.70 Q 158.90 56.90 159.25 57.26 L 158.33 58.19 Q 158.18 58.03 157.99 57.94 Q 157.81 57.85 157.53 57.85 Q 157.01 57.85 156.73 58.13 Q 156.45 58.41 156.45 58.93 L 156.45 59.76 L 158.33 59.76 L 158.33 61.06 L 156.45 61.06 L 156.45 66.00 L 155.02 66.00 Z M 161.70 66.13 Q 160.85 66.13 160.17 65.70 Q 159.49 65.27 159.09 64.54 Q 158.69 63.80 158.69 62.89 Q 158.69 61.97 159.09 61.24 Q 159.49 60.50 160.17 60.07 Q 160.85 59.63 161.70 59.63 Q 162.30 59.63 162.78 59.85 Q 163.27 60.07 163.61 60.45 L 163.61 59.76 L 165.04 59.76 L 165.04 66.00 L 163.61 66.00 L 163.61 65.32 Q 163.27 65.70 162.78 65.92 Q 162.30 66.13 161.70 66.13 Z M 161.93 64.78 Q 162.72 64.78 163.21 64.25 Q 163.70 63.71 163.70 62.88 Q 163.70 62.03 163.21 61.51 Q 162.72 60.98 161.93 60.98 Q 161.15 60.98 160.66 61.51 Q 160.16 62.03 160.16 62.88 Q 160.16 63.71 160.66 64.25 Q 161.15 64.78 161.93 64.78 Z M 169.50 66.13 Q 168.57 66.13 167.83 65.70 Q 167.08 65.27 166.65 64.53 Q 166.22 63.79 166.22 62.88 Q 166.22 61.96 166.65 61.22 Q 167.08 60.49 167.83 60.06 Q 168.57 59.63 169.50 59.63 Q 170.23 59.63 170.86 59.91 Q 171.49 60.19 171.93 60.71 L 170.99 61.66 Q 170.45 61.01 169.50 61.01 Q 168.70 61.01 168.20 61.53 Q 167.69 62.05 167.69 62.88 Q 167.69 63.71 168.20 64.23 Q 168.70 64.75 169.50 64.75 Q 170.45 64.75 170.99 64.10 L 171.93 65.05 Q 171.49 65.57 170.86 65.85 Q 170.23 66.13 169.50 66.13 Z M 175.73 66.13 Q 174.79 66.13 174.04 65.71 Q 173.29 65.28 172.86 64.54 Q 172.42 63.80 172.42 62.88 Q 172.42 61.96 172.85 61.22 Q 173.28 60.49 174.02 60.06 Q 174.75 59.63 175.65 59.63 Q 176.52 59.63 177.19 60.03 Q 177.86 60.44 178.24 61.14 Q 178.62 61.84 178.62 62.74 Q 178.62 63.02 178.55 63.41 L 173.89 63.41 Q 174.05 64.05 174.53 64.42 Q 175.01 64.79 175.71 64.79 Q 176.19 64.79 176.60 64.62 Q 177.01 64.45 177.30 64.13 L 178.21 65.05 Q 177.75 65.58 177.10 65.86 Q 176.45 66.13 175.73 66.13 Z M 175.62 60.94 Q 174.96 60.94 174.50 61.29 Q 174.05 61.63 173.89 62.24 L 177.22 62.24 Q 176.95 60.94 175.62 60.94 Z M 185.32 66.13 Q 184.38 66.13 183.69 65.77 Q 182.99 65.42 182.61 64.79 Q 182.23 64.15 182.23 63.35 Q 182.23 62.58 182.62 61.96 Q 183.02 61.33 183.80 60.92 Q 183.47 60.50 183.31 60.09 Q 183.15 59.68 183.15 59.20 Q 183.15 58.51 183.49 57.96 Q 183.82 57.41 184.41 57.08 Q 184.99 56.76 185.75 56.76 Q 186.61 56.76 187.23 57.16 Q 187.85 57.56 188.21 58.11 L 187.18 59.02 Q 186.89 58.63 186.56 58.38 Q 186.23 58.13 185.75 58.13 Q 185.25 58.13 184.92 58.43 Q 184.58 58.72 184.58 59.16 Q 184.58 59.60 184.76 59.89 Q 184.94 60.18 185.27 60.55 L 190.14 66.00 L 188.43 66.00 L 187.75 65.26 Q 187.31 65.65 186.67 65.89 Q 186.03 66.13 185.32 66.13 Z M 183.66 63.31 Q 183.66 64.01 184.13 64.40 Q 184.60 64.78 185.37 64.78 Q 185.85 64.78 186.21 64.63 Q 186.57 64.48 186.81 64.25 L 184.55 61.76 Q 184.12 62.02 183.89 62.39 Q 183.66 62.76 183.66 63.31 Z M 195.79 66.13 Q 194.94 66.13 194.26 65.70 Q 193.58 65.27 193.18 64.54 Q 192.78 63.80 192.78 62.89 Q 192.78 61.97 193.18 61.24 Q 193.58 60.50 194.26 60.07 Q 194.94 59.63 195.79 59.63 Q 196.38 59.63 196.87 59.85 Q 197.36 60.07 197.70 60.45 L 197.70 59.76 L 199.13 59.76 L 199.13 68.60 L 197.70 68.60 L 197.70 65.32 Q 197.36 65.70 196.87 65.92 Q 196.38 66.13 195.79 66.13 Z M 196.02 64.78 Q 196.81 64.78 197.30 64.25 Q 197.79 63.71 197.79 62.88 Q 197.79 62.03 197.30 61.51 Q 196.81 60.98 196.02 60.98 Q 195.24 60.98 194.75 61.51 Q 194.25 62.03 194.25 62.88 Q 194.25 63.71 194.75 64.25 Q 195.24 64.78 196.02 64.78 Z M 203.27 66.13 Q 202.48 66.13 201.86 65.78 Q 201.25 65.43 200.90 64.81 Q 200.56 64.19 200.56 63.39 L 200.56 59.76 L 201.99 59.76 L 201.99 63.32 Q 201.99 64.00 202.33 64.38 Q 202.66 64.75 203.27 64.75 Q 203.90 64.75 204.23 64.38 Q 204.56 64.01 204.56 63.32 L 204.56 59.76 L 205.99 59.76 L 205.99 63.39 Q 205.99 64.21 205.65 64.82 Q 205.30 65.44 204.69 65.79 Q 204.08 66.13 203.27 66.13 Z M 210.33 66.13 Q 209.40 66.13 208.65 65.71 Q 207.90 65.28 207.47 64.54 Q 207.03 63.80 207.03 62.88 Q 207.03 61.96 207.46 61.22 Q 207.89 60.49 208.62 60.06 Q 209.36 59.63 210.26 59.63 Q 211.13 59.63 211.80 60.03 Q 212.47 60.44 212.85 61.14 Q 213.23 61.84 213.23 62.74 Q 213.23 63.02 213.15 63.41 L 208.50 63.41 Q 208.66 64.05 209.14 64.42 Q 209.62 64.79 210.32 64.79 Q 210.80 64.79 211.21 64.62 Q 211.62 64.45 211.91 64.13 L 212.82 65.05 Q 212.36 65.58 211.71 65.86 Q 211.06 66.13 210.33 66.13 Z M 210.23 60.94 Q 209.57 60.94 209.11 61.29 Q 208.66 61.63 208.50 62.24 L 211.83 62.24 Q 211.56 60.94 210.23 60.94 Z M 214.38 66.00 L 214.38 59.76 L 215.81 59.76 L 215.81 60.41 Q 216.07 60.05 216.48 59.84 Q 216.89 59.63 217.43 59.63 Q 218.36 59.63 218.98 60.34 L 218.04 61.31 Q 217.71 60.97 217.19 60.97 Q 216.59 60.97 216.20 61.35 Q 215.81 61.72 215.81 62.53 L 215.81 66.00 L 214.38 66.00 Z M 219.75 68.60 L 221.31 65.38 L 218.94 59.76 L 220.51 59.76 L 222.11 63.83 L 223.80 59.76 L 225.39 59.76 L 222.49 66.06 L 221.33 68.60 L 219.75 68.60 Z M 228.92 68.60 L 228.92 59.76 L 230.35 59.76 L 230.35 60.45 Q 230.69 60.07 231.18 59.85 Q 231.67 59.63 232.26 59.63 Q 233.11 59.63 233.79 60.07 Q 234.47 60.50 234.87 61.24 Q 235.27 61.97 235.27 62.89 Q 235.27 63.80 234.87 64.54 Q 234.47 65.27 233.79 65.70 Q 233.11 66.13 232.26 66.13 Q 231.67 66.13 231.18 65.92 Q 230.69 65.70 230.35 65.32 L 230.35 68.60 L 228.92 68.60 Z M 232.03 64.78 Q 232.81 64.78 233.30 64.25 Q 233.80 63.71 233.80 62.88 Q 233.80 62.03 233.30 61.51 Q 232.81 60.98 232.03 60.98 Q 231.24 60.98 230.75 61.51 Q 230.26 62.03 230.26 62.88 Q 230.26 63.71 230.75 64.25 Q 231.24 64.78 232.03 64.78 Z M 239.08 66.13 Q 238.23 66.13 237.55 65.70 Q 236.87 65.27 236.47 64.54 Q 236.07 63.80 236.07 62.89 Q 236.07 61.97 236.47 61.24 Q 236.87 60.50 237.55 60.07 Q 238.23 59.63 239.08 59.63 Q 239.67 59.63 240.16 59.85 Q 240.65 60.07 240.99 60.45 L 240.99 59.76 L 242.42 59.76 L 242.42 66.00 L 240.99 66.00 L 240.99 65.32 Q 240.65 65.70 240.16 65.92 Q 239.67 66.13 239.08 66.13 Z M 239.31 64.78 Q 240.10 64.78 240.59 64.25 Q 241.08 63.71 241.08 62.88 Q 241.08 62.03 240.59 61.51 Q 240.10 60.98 239.31 60.98 Q 238.53 60.98 238.04 61.51 Q 237.54 62.03 237.54 62.88 Q 237.54 63.71 238.04 64.25 Q 238.53 64.78 239.31 64.78 Z M 244.00 66.00 L 244.00 59.76 L 245.43 59.76 L 245.43 60.41 Q 245.69 60.05 246.10 59.84 Q 246.51 59.63 247.06 59.63 Q 247.98 59.63 248.61 60.34 L 247.67 61.31 Q 247.33 60.97 246.81 60.97 Q 246.21 60.97 245.82 61.35 Q 245.43 61.72 245.43 62.53 L 245.43 66.00 L 244.00 66.00 Z M 251.21 66.13 Q 250.41 66.13 249.74 65.83 Q 249.07 65.53 248.62 64.99 L 249.53 64.08 Q 250.17 64.83 251.23 64.83 Q 252.21 64.83 252.21 64.27 Q 252.21 63.98 251.97 63.83 Q 251.74 63.67 251.37 63.56 Q 251.00 63.45 250.59 63.34 Q 250.18 63.22 249.81 63.02 Q 249.44 62.81 249.20 62.46 Q 248.97 62.11 248.97 61.55 Q 248.97 60.66 249.59 60.14 Q 250.20 59.63 251.27 59.63 Q 252.78 59.63 253.57 60.70 L 252.66 61.61 Q 252.12 60.93 251.23 60.93 Q 250.33 60.93 250.33 61.44 Q 250.33 61.70 250.57 61.84 Q 250.80 61.98 251.17 62.09 Q 251.54 62.19 251.95 62.32 Q 252.36 62.44 252.73 62.65 Q 253.10 62.87 253.34 63.23 Q 253.57 63.58 253.57 64.15 Q 253.57 65.06 252.93 65.60 Q 252.30 66.13 251.21 66.13 Z M 257.65 66.13 Q 256.72 66.13 255.97 65.71 Q 255.22 65.28 254.79 64.54 Q 254.35 63.80 254.35 62.88 Q 254.35 61.96 254.78 61.22 Q 255.21 60.49 255.94 60.06 Q 256.68 59.63 257.58 59.63 Q 258.45 59.63 259.12 60.03 Q 259.79 60.44 260.17 61.14 Q 260.55 61.84 260.55 62.74 Q 260.55 63.02 260.47 63.41 L 255.82 63.41 Q 255.98 64.05 256.46 64.42 Q 256.94 64.79 257.64 64.79 Q 258.12 64.79 258.53 64.62 Q 258.94 64.45 259.23 64.13 L 260.14 65.05 Q 259.68 65.58 259.03 65.86 Q 258.38 66.13 257.65 66.13 Z M 257.55 60.94 Q 256.89 60.94 256.43 61.29 Q 255.98 61.63 255.82 62.24 L 259.15 62.24 Q 258.88 60.94 257.55 60.94 Z M 261.70 66.00 L 261.70 59.76 L 263.13 59.76 L 263.13 60.41 Q 263.39 60.05 263.80 59.84 Q 264.21 59.63 264.75 59.63 Q 265.68 59.63 266.30 60.34 L 265.36 61.31 Q 265.03 60.97 264.51 60.97 Q 263.91 60.97 263.52 61.35 Q 263.13 61.72 263.13 62.53 L 263.13 66.00 L 261.70 66.00 Z M 270.68 66.00 L 270.68 61.06 L 269.19 61.06 L 269.19 59.76 L 270.68 59.76 L 270.68 58.94 Q 270.68 58.23 271.00 57.68 Q 271.32 57.13 271.88 56.82 Q 272.45 56.51 273.19 56.51 Q 273.76 56.51 274.16 56.70 Q 274.57 56.90 274.92 57.26 L 274.00 58.19 Q 273.84 58.03 273.66 57.94 Q 273.48 57.85 273.19 57.85 Q 272.67 57.85 272.39 58.13 Q 272.11 58.41 272.11 58.93 L 272.11 59.76 L 274.00 59.76 L 274.00 61.06 L 272.11 61.06 L 272.11 66.00 L 270.68 66.00 Z M 277.61 66.13 Q 276.70 66.13 275.96 65.70 Q 275.22 65.26 274.78 64.52 Q 274.35 63.78 274.35 62.87 Q 274.35 61.96 274.78 61.23 Q 275.22 60.50 275.96 60.07 Q 276.70 59.63 277.61 59.63 Q 278.53 59.63 279.27 60.06 Q 280.01 60.49 280.45 61.22 Q 280.88 61.96 280.88 62.87 Q 280.88 63.78 280.45 64.52 Q 280.01 65.26 279.27 65.70 Q 278.53 66.13 277.61 66.13 Z M 277.61 64.75 Q 278.41 64.75 278.91 64.23 Q 279.42 63.70 279.42 62.87 Q 279.42 62.05 278.91 61.53 Q 278.40 61.01 277.61 61.01 Q 276.82 61.01 276.31 61.54 Q 275.81 62.06 275.81 62.87 Q 275.81 63.70 276.31 64.23 Q 276.82 64.75 277.61 64.75 Z M 282.07 66.00 L 282.07 59.76 L 283.50 59.76 L 283.50 60.41 Q 283.76 60.05 284.17 59.84 Q 284.58 59.63 285.12 59.63 Q 286.05 59.63 286.67 60.34 L 285.73 61.31 Q 285.40 60.97 284.88 60.97 Q 284.28 60.97 283.89 61.35 Q 283.50 61.72 283.50 62.53 L 283.50 66.00 L 282.07 66.00 Z M 290.19 66.00 L 290.19 59.76 L 291.62 59.76 L 291.62 60.41 Q 291.88 60.05 292.29 59.84 Q 292.70 59.63 293.25 59.63 Q 294.17 59.63 294.79 60.34 L 293.86 61.31 Q 293.52 60.97 293.00 60.97 Q 292.40 60.97 292.01 61.35 Q 291.62 61.72 291.62 62.53 L 291.62 66.00 L 290.19 66.00 Z M 298.20 66.13 Q 297.26 66.13 296.52 65.71 Q 295.77 65.28 295.33 64.54 Q 294.90 63.80 294.90 62.88 Q 294.90 61.96 295.33 61.22 Q 295.75 60.49 296.49 60.06 Q 297.23 59.63 298.12 59.63 Q 298.99 59.63 299.66 60.03 Q 300.33 60.44 300.72 61.14 Q 301.10 61.84 301.10 62.74 Q 301.10 63.02 301.02 63.41 L 296.37 63.41 Q 296.52 64.05 297.00 64.42 Q 297.49 64.79 298.19 64.79 Q 298.67 64.79 299.08 64.62 Q 299.49 64.45 299.77 64.13 L 300.68 65.05 Q 300.23 65.58 299.58 65.86 Q 298.93 66.13 298.20 66.13 Z M 298.09 60.94 Q 297.43 60.94 296.98 61.29 Q 296.52 61.63 296.37 62.24 L 299.70 62.24 Q 299.42 60.94 298.09 60.94 Z M 302.24 66.00 L 302.24 56.64 L 303.67 56.64 L 303.67 66.00 L 302.24 66.00 Z M 307.87 66.13 Q 307.03 66.13 306.35 65.70 Q 305.66 65.27 305.27 64.54 Q 304.87 63.80 304.87 62.89 Q 304.87 61.97 305.27 61.24 Q 305.66 60.50 306.35 60.07 Q 307.03 59.63 307.87 59.63 Q 308.47 59.63 308.96 59.85 Q 309.45 60.07 309.78 60.45 L 309.78 59.76 L 311.21 59.76 L 311.21 66.00 L 309.78 66.00 L 309.78 65.32 Q 309.45 65.70 308.96 65.92 Q 308.47 66.13 307.87 66.13 Z M 308.11 64.78 Q 308.90 64.78 309.39 64.25 Q 309.87 63.71 309.87 62.88 Q 309.87 62.03 309.39 61.51 Q 308.90 60.98 308.11 60.98 Q 307.33 60.98 306.83 61.51 Q 306.34 62.03 306.34 62.88 Q 306.34 63.71 306.83 64.25 Q 307.33 64.78 308.11 64.78 Z M 313.75 66.00 L 313.75 61.06 L 312.25 61.06 L 312.25 59.76 L 313.75 59.76 L 313.75 57.16 L 315.18 57.16 L 315.18 59.76 L 316.67 59.76 L 316.67 61.06 L 315.18 61.06 L 315.18 66.00 L 313.75 66.00 Z M 318.44 58.62 Q 318.08 58.62 317.84 58.37 Q 317.60 58.12 317.60 57.76 Q 317.60 57.39 317.84 57.15 Q 318.08 56.90 318.44 56.90 Q 318.82 56.90 319.05 57.15 Q 319.29 57.39 319.29 57.76 Q 319.29 58.12 319.05 58.37 Q 318.82 58.62 318.44 58.62 Z M 317.73 66.00 L 317.73 59.76 L 319.16 59.76 L 319.16 66.00 L 317.73 66.00 Z M 323.62 66.13 Q 322.71 66.13 321.96 65.70 Q 321.22 65.26 320.79 64.52 Q 320.35 63.78 320.35 62.87 Q 320.35 61.96 320.79 61.23 Q 321.22 60.50 321.96 60.07 Q 322.71 59.63 323.62 59.63 Q 324.54 59.63 325.28 60.06 Q 326.02 60.49 326.46 61.22 Q 326.89 61.96 326.89 62.87 Q 326.89 63.78 326.46 64.52 Q 326.02 65.26 325.28 65.70 Q 324.54 66.13 323.62 66.13 Z M 323.62 64.75 Q 324.42 64.75 324.92 64.23 Q 325.42 63.70 325.42 62.87 Q 325.42 62.05 324.92 61.53 Q 324.41 61.01 323.62 61.01 Q 322.82 61.01 322.32 61.54 Q 321.82 62.06 321.82 62.87 Q 321.82 63.70 322.32 64.23 Q 322.82 64.75 323.62 64.75 Z M 328.07 66.00 L 328.07 59.76 L 329.50 59.76 L 329.50 60.48 Q 329.83 60.07 330.31 59.85 Q 330.79 59.63 331.36 59.63 Q 332.07 59.63 332.61 59.99 Q 333.16 60.34 333.47 60.91 Q 333.78 61.48 333.78 62.09 L 333.78 66.00 L 332.35 66.00 L 332.35 62.40 Q 332.35 61.77 331.96 61.37 Q 331.56 60.97 330.93 60.97 Q 330.31 60.97 329.91 61.37 Q 329.50 61.77 329.50 62.40 L 329.50 66.00 L 328.07 66.00 Z M 337.85 66.13 Q 337.01 66.13 336.32 65.70 Q 335.64 65.27 335.24 64.54 Q 334.85 63.80 334.85 62.89 Q 334.85 61.97 335.24 61.24 Q 335.64 60.50 336.32 60.07 Q 337.01 59.63 337.85 59.63 Q 338.45 59.63 338.94 59.85 Q 339.42 60.07 339.76 60.45 L 339.76 59.76 L 341.19 59.76 L 341.19 66.00 L 339.76 66.00 L 339.76 65.32 Q 339.42 65.70 338.94 65.92 Q 338.45 66.13 337.85 66.13 Z M 338.08 64.78 Q 338.88 64.78 339.36 64.25 Q 339.85 63.71 339.85 62.88 Q 339.85 62.03 339.36 61.51 Q 338.88 60.98 338.08 60.98 Q 337.30 60.98 336.81 61.51 Q 336.32 62.03 336.32 62.88 Q 336.32 63.71 336.81 64.25 Q 337.30 64.78 338.08 64.78 Z M 342.78 66.00 L 342.78 56.64 L 344.21 56.64 L 344.21 66.00 L 342.78 66.00 Z M 351.01 66.13 Q 350.16 66.13 349.48 65.70 Q 348.80 65.27 348.40 64.54 Q 348.00 63.80 348.00 62.89 Q 348.00 61.97 348.40 61.24 Q 348.80 60.50 349.48 60.07 Q 350.16 59.63 351.01 59.63 Q 351.60 59.63 352.09 59.85 Q 352.58 60.07 352.92 60.45 L 352.92 56.64 L 354.35 56.64 L 354.35 66.00 L 352.92 66.00 L 352.92 65.32 Q 352.58 65.70 352.09 65.92 Q 351.60 66.13 351.01 66.13 Z M 351.24 64.78 Q 352.03 64.78 352.52 64.25 Q 353.01 63.71 353.01 62.88 Q 353.01 62.03 352.52 61.51 Q 352.03 60.98 351.24 60.98 Q 350.46 60.98 349.97 61.51 Q 349.47 62.03 349.47 62.88 Q 349.47 63.71 349.97 64.25 Q 350.46 64.78 351.24 64.78 Z M 358.55 66.13 Q 357.70 66.13 357.02 65.70 Q 356.34 65.27 355.94 64.54 Q 355.54 63.80 355.54 62.89 Q 355.54 61.97 355.94 61.24 Q 356.34 60.50 357.02 60.07 Q 357.70 59.63 358.55 59.63 Q 359.14 59.63 359.63 59.85 Q 360.12 60.07 360.46 60.45 L 360.46 59.76 L 361.89 59.76 L 361.89 66.00 L 360.46 66.00 L 360.46 65.32 Q 360.12 65.70 359.63 65.92 Q 359.14 66.13 358.55 66.13 Z M 358.78 64.78 Q 359.57 64.78 360.06 64.25 Q 360.55 63.71 360.55 62.88 Q 360.55 62.03 360.06 61.51 Q 359.57 60.98 358.78 60.98 Q 358.00 60.98 357.51 61.51 Q 357.01 62.03 357.01 62.88 Q 357.01 63.71 357.51 64.25 Q 358.00 64.78 358.78 64.78 Z M 364.42 66.00 L 364.42 61.06 L 362.93 61.06 L 362.93 59.76 L 364.42 59.76 L 364.42 57.16 L 365.85 57.16 L 365.85 59.76 L 367.35 59.76 L 367.35 61.06 L 365.85 61.06 L 365.85 66.00 L 364.42 66.00 Z M 370.82 66.13 Q 369.97 66.13 369.29 65.70 Q 368.61 65.27 368.21 64.54 Q 367.81 63.80 367.81 62.89 Q 367.81 61.97 368.21 61.24 Q 368.61 60.50 369.29 60.07 Q 369.97 59.63 370.82 59.63 Q 371.41 59.63 371.90 59.85 Q 372.39 60.07 372.73 60.45 L 372.73 59.76 L 374.16 59.76 L 374.16 66.00 L 372.73 66.00 L 372.73 65.32 Q 372.39 65.70 371.90 65.92 Q 371.41 66.13 370.82 66.13 Z M 371.05 64.78 Q 371.84 64.78 372.33 64.25 Q 372.82 63.71 372.82 62.88 Q 372.82 62.03 372.33 61.51 Q 371.84 60.98 371.05 60.98 Q 370.27 60.98 369.78 61.51 Q 369.28 62.03 369.28 62.88 Q 369.28 63.71 369.78 64.25 Q 370.27 64.78 371.05 64.78 Z M 375.74 66.00 L 375.74 56.64 L 377.17 56.64 L 377.17 60.45 Q 377.51 60.07 378.00 59.85 Q 378.49 59.63 379.08 59.63 Q 379.93 59.63 380.61 60.07 Q 381.29 60.50 381.69 61.24 Q 382.09 61.97 382.09 62.89 Q 382.09 63.80 381.69 64.54 Q 381.29 65.27 380.61 65.70 Q 379.93 66.13 379.08 66.13 Q 378.49 66.13 378.00 65.92 Q 377.51 65.70 377.17 65.32 L 377.17 66.00 L 375.74 66.00 Z M 378.85 64.78 Q 379.63 64.78 380.12 64.25 Q 380.62 63.71 380.62 62.88 Q 380.62 62.03 380.12 61.51 Q 379.63 60.98 378.85 60.98 Q 378.06 60.98 377.57 61.51 Q 377.08 62.03 377.08 62.88 Q 377.08 63.71 377.57 64.25 Q 378.06 64.78 378.85 64.78 Z M 385.90 66.13 Q 385.05 66.13 384.37 65.70 Q 383.69 65.27 383.29 64.54 Q 382.89 63.80 382.89 62.89 Q 382.89 61.97 383.29 61.24 Q 383.69 60.50 384.37 60.07 Q 385.05 59.63 385.90 59.63 Q 386.49 59.63 386.98 59.85 Q 387.47 60.07 387.81 60.45 L 387.81 59.76 L 389.24 59.76 L 389.24 66.00 L 387.81 66.00 L 387.81 65.32 Q 387.47 65.70 386.98 65.92 Q 386.49 66.13 385.90 66.13 Z M 386.13 64.78 Q 386.92 64.78 387.41 64.25 Q 387.90 63.71 387.90 62.88 Q 387.90 62.03 387.41 61.51 Q 386.92 60.98 386.13 60.98 Q 385.35 60.98 384.86 61.51 Q 384.36 62.03 384.36 62.88 Q 384.36 63.71 384.86 64.25 Q 385.35 64.78 386.13 64.78 Z M 392.86 66.13 Q 392.07 66.13 391.40 65.83 Q 390.73 65.53 390.28 64.99 L 391.19 64.08 Q 391.82 64.83 392.89 64.83 Q 393.87 64.83 393.87 64.27 Q 393.87 63.98 393.63 63.83 Q 393.40 63.67 393.03 63.56 Q 392.66 63.45 392.25 63.34 Q 391.84 63.22 391.47 63.02 Q 391.10 62.81 390.86 62.46 Q 390.63 62.11 390.63 61.55 Q 390.63 60.66 391.25 60.14 Q 391.86 59.63 392.93 59.63 Q 394.44 59.63 395.23 60.70 L 394.32 61.61 Q 393.77 60.93 392.89 60.93 Q 391.99 60.93 391.99 61.44 Q 391.99 61.70 392.23 61.84 Q 392.46 61.98 392.83 62.09 Q 393.20 62.19 393.61 62.32 Q 394.02 62.44 394.39 62.65 Q 394.76 62.87 395.00 63.23 Q 395.23 63.58 395.23 64.15 Q 395.23 65.06 394.59 65.60 Q 393.96 66.13 392.86 66.13 Z M 399.31 66.13 Q 398.38 66.13 397.63 65.71 Q 396.88 65.28 396.45 64.54 Q 396.01 63.80 396.01 62.88 Q 396.01 61.96 396.44 61.22 Q 396.87 60.49 397.60 60.06 Q 398.34 59.63 399.23 59.63 Q 400.11 59.63 400.77 60.03 Q 401.44 60.44 401.83 61.14 Q 402.21 61.84 402.21 62.74 Q 402.21 63.02 402.13 63.41 L 397.48 63.41 Q 397.64 64.05 398.12 64.42 Q 398.60 64.79 399.30 64.79 Q 399.78 64.79 400.19 64.62 Q 400.60 64.45 400.89 64.13 L 401.80 65.05 Q 401.34 65.58 400.69 65.86 Q 400.04 66.13 399.31 66.13 Z M 399.21 60.94 Q 398.55 60.94 398.09 61.29 Q 397.64 61.63 397.48 62.24 L 400.81 62.24 Q 400.53 60.94 399.21 60.94 Z" fill="#94a3b8" />
<path d="M 26.59 84.13 Q 25.79 84.13 25.12 83.83 Q 24.46 83.53 24.00 82.99 L 24.91 82.08 Q 25.55 82.83 26.61 82.83 Q 27.59 82.83 27.59 82.27 Q 27.59 81.98 27.35 81.83 Q 27.12 81.67 26.75 81.56 Q 26.38 81.45 25.97 81.33 Q 25.56 81.22 25.19 81.02 Q 24.82 80.81 24.58 80.46 Q 24.35 80.11 24.35 79.55 Q 24.35 78.66 24.97 78.14 Q 25.58 77.63 26.65 77.63 Q 28.16 77.63 28.95 78.70 L 28.04 79.61 Q 27.50 78.93 26.61 78.93 Q 25.71 78.93 25.71 79.44 Q 25.71 79.70 25.95 79.84 Q 26.18 79.98 26.55 80.09 Q 26.93 80.19 27.33 80.32 Q 27.74 80.44 28.11 80.65 Q 28.49 80.87 28.72 81.23 Q 28.95 81.58 28.95 82.15 Q 28.95 83.06 28.31 83.60 Q 27.68 84.13 26.59 84.13 Z" fill="#94a3b8" />
<circle cx="28" cy="104" r="4.5" fill="#3776ab" filter="url(#softGlow)" />
<path d="M 38.00 108.00 L 38.00 99.21 L 41.46 99.21 Q 42.30 99.21 42.96 99.55 Q 43.62 99.89 44.02 100.51 Q 44.41 101.14 44.41 101.97 Q 44.41 102.82 44.02 103.44 Q 43.62 104.06 42.96 104.40 Q 42.30 104.74 41.46 104.74 L 39.70 104.74 L 39.70 108.00 L 38.00 108.00 Z M 41.29 100.60 L 39.70 100.60 L 39.70 103.35 L 41.29 103.35 Q 41.90 103.35 42.31 102.99 Q 42.71 102.62 42.71 101.97 Q 42.71 101.34 42.31 100.97 Q 41.90 100.60 41.29 100.60 Z M 45.75 110.53 L 47.19 107.49 L 44.90 101.96 L 46.67 101.96 L 48.05 105.80 L 49.49 101.96 L 51.27 101.96 L 48.59 108.05 L 47.49 110.53 L 45.75 110.53 Z M 52.89 108.00 L 52.89 103.40 L 51.47 103.40 L 51.47 101.96 L 52.89 101.96 L 52.89 99.45 L 54.52 99.45 L 54.52 101.96 L 55.94 101.96 L 55.94 103.40 L 54.52 103.40 L 54.52 108.00 L 52.89 108.00 Z M 56.86 108.00 L 56.86 98.96 L 58.50 98.96 L 58.50 102.53 Q 58.81 102.20 59.25 102.02 Q 59.69 101.84 60.21 101.84 Q 60.90 101.84 61.43 102.14 Q 61.96 102.44 62.26 102.96 Q 62.56 103.49 62.56 104.18 L 62.56 108.00 L 60.92 108.00 L 60.92 104.54 Q 60.92 104.00 60.58 103.66 Q 60.24 103.32 59.71 103.32 Q 59.19 103.32 58.84 103.66 Q 58.50 104.00 58.50 104.54 L 58.50 108.00 L 56.86 108.00 Z M 66.72 108.12 Q 65.81 108.12 65.08 107.71 Q 64.35 107.29 63.92 106.58 Q 63.49 105.86 63.49 104.96 Q 63.49 104.09 63.91 103.38 Q 64.34 102.66 65.07 102.24 Q 65.80 101.82 66.71 101.82 Q 67.62 101.82 68.36 102.24 Q 69.10 102.66 69.52 103.37 Q 69.95 104.07 69.95 104.96 Q 69.95 105.86 69.52 106.58 Q 69.10 107.30 68.37 107.71 Q 67.64 108.12 66.72 108.12 Z M 66.71 106.60 Q 67.41 106.60 67.84 106.14 Q 68.28 105.69 68.28 104.97 Q 68.28 104.26 67.84 103.81 Q 67.40 103.36 66.71 103.36 Q 66.04 103.36 65.60 103.82 Q 65.16 104.28 65.16 104.97 Q 65.16 105.69 65.60 106.14 Q 66.04 106.60 66.71 106.60 Z M 71.00 108.00 L 71.00 101.96 L 72.64 101.96 L 72.64 102.54 Q 72.96 102.20 73.41 102.02 Q 73.85 101.84 74.39 101.84 Q 75.05 101.84 75.57 102.17 Q 76.10 102.50 76.40 103.04 Q 76.70 103.57 76.70 104.18 L 76.70 108.00 L 75.06 108.00 L 75.06 104.54 Q 75.06 104.00 74.72 103.66 Q 74.38 103.32 73.85 103.32 Q 73.33 103.32 72.98 103.66 Q 72.64 104.00 72.64 104.54 L 72.64 108.00 L 71.00 108.00 Z" fill="#cbd5e1" />
</svg>