<svg xmlns="http://www.w3.org/2000/svg" viewBox="0 0 600 32" width="100%" height="auto">

    <defs>
      <linearGradient id="headerGrad" x1="0%" y1="0%" x2="100%" y2="0%">
        <stop offset="0%" stop-color="#4285F4" />
        <stop offset="25%" stop-color="#00f2fe" />
        <stop offset="50%" stop-color="#c084fc" />
        <stop offset="75%" stop-color="#f43f5e" />
        <stop offset="100%" stop-color="#FBBC05" />
      </linearGradient>
    </defs>
    
<g transform="translate(200.030859375, 5) scale(0.9)"><path d="m12 2 10 5-10 5L2 7l10-5ZM2 17l10 5 10-5M2 12l10 5 10-5" stroke="#c084fc" stroke-width="2" stroke-linecap="round" stroke-linejoin="round" fill="none" /></g>
<path d="M 233.69 19.11 Q 233.04 20.52 231.72 20.52 Q 231.17 20.52 230.77 20.29 Q 230.37 20.09 230.12 19.77 Q 229.82 19.44 229.72 18.90 Q 229.60 18.36 229.60 16.84 Q 229.60 15.32 229.72 14.76 Q 229.82 14.24 230.12 13.91 Q 230.37 13.59 230.77 13.38 Q 231.17 13.17 231.72 13.16 Q 232.47 13.17 232.99 13.59 Q 233.50 14.03 233.69 14.65 L 235.34 14.65 Q 235.10 13.35 234.15 12.48 Q 233.21 11.61 231.72 11.59 Q 230.50 11.61 229.69 12.17 Q 228.86 12.73 228.48 13.45 Q 228.25 13.82 228.14 14.43 Q 228.03 15.04 228.03 16.84 Q 228.03 18.61 228.14 19.23 Q 228.19 19.56 228.28 19.78 Q 228.37 20.00 228.48 20.23 Q 228.86 20.94 229.69 21.49 Q 230.50 22.06 231.72 22.09 Q 233.07 22.09 234.05 21.32 Q 235.00 20.55 235.34 19.11 L 233.69 19.11 Z M 236.09 16.84 Q 236.09 18.61 236.20 19.23 Q 236.26 19.56 236.34 19.78 Q 236.43 20.00 236.55 20.23 Q 236.92 20.94 237.75 21.49 Q 238.57 22.06 239.78 22.09 Q 241.02 22.06 241.84 21.49 Q 242.65 20.94 243.01 20.23 Q 243.27 19.85 243.37 19.23 Q 243.46 18.61 243.46 16.84 Q 243.46 15.04 243.37 14.43 Q 243.27 13.82 243.01 13.45 Q 242.65 12.73 241.84 12.17 Q 241.02 11.61 239.78 11.59 Q 238.57 11.61 237.75 12.17 Q 236.92 12.73 236.55 13.45 Q 236.31 13.82 236.20 14.43 Q 236.09 15.04 236.09 16.84 L 236.09 16.84 Z M 237.67 16.84 Q 237.67 15.32 237.78 14.76 Q 237.88 14.24 238.18 13.91 Q 238.43 13.59 238.83 13.38 Q 239.23 13.17 239.78 13.16 Q 240.34 13.17 240.75 13.38 Q 241.14 13.59 241.38 13.91 Q 241.68 14.24 241.79 14.76 Q 241.90 15.32 241.90 16.84 Q 241.90 18.36 241.79 18.90 Q 241.68 19.44 241.38 19.77 Q 241.14 20.09 240.75 20.29 Q 240.34 20.52 239.78 20.52 Q 239.23 20.52 238.83 20.29 Q 238.43 20.09 238.18 19.77 Q 237.88 19.44 237.78 18.90 Q 237.67 18.36 237.67 16.84 L 237.67 16.84 Z M 246.86 13.07 L 249.31 13.07 Q 250.06 13.07 250.45 13.39 Q 250.95 13.75 250.97 14.56 Q 250.97 15.23 250.54 15.69 Q 250.10 16.19 249.22 16.20 L 246.86 16.20 L 246.86 13.07 Z M 245.29 22.00 L 246.86 22.00 L 246.86 17.59 L 248.85 17.59 L 250.98 22.00 L 252.85 22.00 L 250.45 17.42 Q 252.42 16.66 252.45 14.56 Q 252.41 13.13 251.42 12.36 Q 250.61 11.68 249.32 11.68 L 245.29 11.68 L 245.29 22.00 Z M 254.13 22.00 L 260.73 22.00 L 260.73 20.52 L 255.70 20.52 L 255.70 17.49 L 259.99 17.49 L 259.99 16.10 L 255.70 16.10 L 255.70 13.16 L 260.73 13.16 L 260.73 11.68 L 254.13 11.68 L 254.13 22.00 Z M 267.42 22.00 L 268.99 22.00 L 268.99 13.07 L 271.82 13.07 L 271.82 11.68 L 264.60 11.68 L 264.60 13.07 L 267.42 13.07 L 267.42 22.00 Z M 272.92 22.00 L 279.51 22.00 L 279.51 20.52 L 274.49 20.52 L 274.49 17.49 L 278.78 17.49 L 278.78 16.10 L 274.49 16.10 L 274.49 13.16 L 279.51 13.16 L 279.51 11.68 L 272.92 11.68 L 272.92 22.00 Z M 286.29 19.11 Q 285.64 20.52 284.32 20.52 Q 283.77 20.52 283.37 20.29 Q 282.97 20.09 282.72 19.77 Q 282.42 19.44 282.32 18.90 Q 282.20 18.36 282.20 16.84 Q 282.20 15.32 282.32 14.76 Q 282.42 14.24 282.72 13.91 Q 282.97 13.59 283.37 13.38 Q 283.77 13.17 284.32 13.16 Q 285.07 13.17 285.60 13.59 Q 286.10 14.03 286.29 14.65 L 287.95 14.65 Q 287.70 13.35 286.76 12.48 Q 285.82 11.61 284.32 11.59 Q 283.10 11.61 282.29 12.17 Q 281.46 12.73 281.08 13.45 Q 280.85 13.82 280.74 14.43 Q 280.63 15.04 280.63 16.84 Q 280.63 18.61 280.74 19.23 Q 280.80 19.56 280.88 19.78 Q 280.97 20.00 281.08 20.23 Q 281.46 20.94 282.29 21.49 Q 283.10 22.06 284.32 22.09 Q 285.67 22.09 286.65 21.32 Q 287.61 20.55 287.95 19.11 L 286.29 19.11 Z M 294.70 22.00 L 296.26 22.00 L 296.26 11.68 L 294.70 11.68 L 294.70 16.10 L 290.61 16.10 L 290.61 11.68 L 289.05 11.68 L 289.05 22.00 L 290.61 22.00 L 290.61 17.49 L 294.70 17.49 L 294.70 22.00 Z M 298.44 22.00 L 300.01 22.00 L 300.01 14.66 L 300.04 14.66 L 304.70 22.00 L 306.18 22.00 L 306.18 11.68 L 304.62 11.68 L 304.62 19.01 L 304.59 19.01 L 299.92 11.68 L 298.44 11.68 L 298.44 22.00 Z M 308.36 22.00 L 309.93 22.00 L 309.93 11.68 L 308.36 11.68 L 308.36 22.00 Z M 317.41 19.11 Q 316.75 20.52 315.44 20.52 Q 314.88 20.52 314.49 20.29 Q 314.08 20.09 313.84 19.77 Q 313.53 19.44 313.43 18.90 Q 313.32 18.36 313.32 16.84 Q 313.32 15.32 313.43 14.76 Q 313.53 14.24 313.84 13.91 Q 314.08 13.59 314.49 13.38 Q 314.88 13.17 315.44 13.16 Q 316.19 13.17 316.71 13.59 Q 317.21 14.03 317.41 14.65 L 319.06 14.65 Q 318.81 13.35 317.87 12.48 Q 316.93 11.61 315.44 11.59 Q 314.22 11.61 313.40 12.17 Q 312.58 12.73 312.20 13.45 Q 311.97 13.82 311.85 14.43 Q 311.75 15.04 311.75 16.84 Q 311.75 18.61 311.85 19.23 Q 311.91 19.56 311.99 19.78 Q 312.09 20.00 312.20 20.23 Q 312.58 20.94 313.40 21.49 Q 314.22 22.06 315.44 22.09 Q 316.78 22.09 317.77 21.32 Q 318.72 20.55 319.06 19.11 L 317.41 19.11 Z M 321.99 18.30 L 323.49 13.79 L 323.51 13.79 L 325.01 18.30 L 321.99 18.30 Z M 326.25 22.00 L 327.90 22.00 L 324.15 11.68 L 322.84 11.68 L 319.09 22.00 L 320.75 22.00 L 321.54 19.69 L 325.45 19.69 L 326.25 22.00 Z M 329.01 22.00 L 335.60 22.00 L 335.60 20.52 L 330.57 20.52 L 330.57 11.68 L 329.01 11.68 L 329.01 22.00 Z M 342.37 18.30 L 343.87 13.79 L 343.89 13.79 L 345.39 18.30 L 342.37 18.30 Z M 346.64 22.00 L 348.29 22.00 L 344.53 11.68 L 343.22 11.68 L 339.47 22.00 L 341.13 22.00 L 341.92 19.69 L 345.84 19.69 L 346.64 22.00 Z M 350.95 13.07 L 353.40 13.07 Q 354.15 13.07 354.55 13.39 Q 355.05 13.75 355.07 14.56 Q 355.07 15.23 354.64 15.69 Q 354.20 16.19 353.32 16.20 L 350.95 16.20 L 350.95 13.07 Z M 349.39 22.00 L 350.95 22.00 L 350.95 17.59 L 352.95 17.59 L 355.08 22.00 L 356.94 22.00 L 354.55 17.42 Q 356.52 16.66 356.55 14.56 Q 356.51 13.13 355.52 12.36 Q 354.71 11.68 353.42 11.68 L 349.39 11.68 L 349.39 22.00 Z M 358.36 19.49 L 357.33 20.67 Q 358.98 22.09 361.28 22.09 Q 364.82 22.04 364.90 19.08 Q 364.90 17.99 364.22 17.16 Q 363.52 16.32 362.07 16.12 Q 361.33 16.02 360.91 15.95 Q 360.14 15.81 359.80 15.44 Q 359.45 15.08 359.45 14.64 Q 359.46 13.89 359.97 13.52 Q 360.45 13.16 361.17 13.16 Q 362.57 13.18 363.73 13.95 L 363.73 13.95 L 364.60 12.66 Q 363.18 11.63 361.25 11.59 Q 359.65 11.61 358.78 12.43 Q 357.88 13.26 357.88 14.61 Q 357.88 15.73 358.59 16.52 Q 359.29 17.29 360.62 17.50 Q 361.36 17.61 361.99 17.70 Q 363.35 17.93 363.33 19.08 Q 363.30 20.49 361.29 20.52 Q 359.59 20.51 358.36 19.49 L 358.36 19.49 Z M 366.55 22.00 L 373.14 22.00 L 373.14 20.52 L 368.12 20.52 L 368.12 17.49 L 372.41 17.49 L 372.41 16.10 L 368.12 16.10 L 368.12 13.16 L 373.14 13.16 L 373.14 11.68 L 366.55 11.68 L 366.55 22.00 Z M 374.61 22.00 L 376.18 22.00 L 376.18 14.66 L 376.21 14.66 L 380.87 22.00 L 382.35 22.00 L 382.35 11.68 L 380.79 11.68 L 380.79 19.01 L 380.76 19.01 L 376.09 11.68 L 374.61 11.68 L 374.61 22.00 Z M 386.36 18.30 L 387.85 13.79 L 387.88 13.79 L 389.38 18.30 L 386.36 18.30 Z M 390.62 22.00 L 392.27 22.00 L 388.52 11.68 L 387.21 11.68 L 383.46 22.00 L 385.12 22.00 L 385.91 19.69 L 389.82 19.69 L 390.62 22.00 Z M 393.38 22.00 L 399.97 22.00 L 399.97 20.52 L 394.94 20.52 L 394.94 11.68 L 393.38 11.68 L 393.38 22.00 Z" fill="url(#headerGrad)" stroke="url(#headerGrad)" stroke-width="0.5" stroke-linejoin="round"/>
</svg>