<svg xmlns="http://www.w3.org/2000/svg" viewBox="0 0 600 36" width="100%" height="auto">

    <defs>
      <linearGradient id="headerGrad" x1="0%" y1="0%" x2="100%" y2="0%">
        <stop offset="0%" stop-color="#00f2fe" />
        <stop offset="33%" stop-color="#38ef7d" />
        <stop offset="66%" stop-color="#c084fc" />
        <stop offset="100%" stop-color="#f43f5e" />
      </linearGradient>
      <filter id="glow">
        <feGaussianBlur stdDeviation="2.5" result="blur" />
        <feComposite in="SourceGraphic" in2="blur" operator="over" />
      </filter>
    </defs>
    
<g transform="translate(162.23703125, 6)"><path d="M6 9H4.5a2.5 2.5 0 0 1 0-5H6M18 9h1.5a2.5 2.5 0 0 0 0-5H18M4 22h16M10 14.66V17c0 .55-.45 1-1 1H7M14 14.66V17c0 .55.45 1 1 1h2M18 2H6v7a6 6 0 0 0 12 0V2Z" stroke="#f59e0b" stroke-width="2" stroke-linecap="round" stroke-linejoin="round" fill="none" /></g>
<path d="M 194.24 24.00 L 194.24 11.40 L 196.61 11.40 L 196.61 16.60 L 201.29 16.60 L 201.29 11.40 L 203.67 11.40 L 203.67 24.00 L 201.29 24.00 L 201.29 18.76 L 196.61 18.76 L 196.61 24.00 L 194.24 24.00 Z M 205.18 24.00 L 208.49 11.40 L 212.63 11.40 L 215.94 24.00 L 213.50 24.00 L 212.81 21.23 L 208.31 21.23 L 207.63 24.00 L 205.18 24.00 Z M 208.87 19.03 L 212.25 19.03 L 210.72 12.89 L 210.40 12.89 L 208.87 19.03 Z M 217.46 24.00 L 217.46 11.40 L 219.83 11.40 L 219.83 21.84 L 225.59 21.84 L 225.59 24.00 L 217.46 24.00 Z M 227.21 24.00 L 227.21 11.40 L 229.59 11.40 L 229.59 21.84 L 235.35 21.84 L 235.35 24.00 L 227.21 24.00 Z M 245.90 24.25 Q 243.52 24.25 242.12 22.95 Q 240.72 21.64 240.72 19.21 L 240.72 16.19 Q 240.72 13.76 242.12 12.45 Q 243.52 11.15 245.90 11.15 Q 248.28 11.15 249.68 12.45 Q 251.08 13.76 251.08 16.19 L 251.08 19.21 Q 251.08 21.64 249.68 22.95 Q 248.28 24.25 245.90 24.25 Z M 245.90 22.13 Q 247.23 22.13 247.97 21.35 Q 248.71 20.58 248.71 19.28 L 248.71 16.12 Q 248.71 14.82 247.97 14.05 Q 247.23 13.27 245.90 13.27 Q 244.59 13.27 243.84 14.05 Q 243.09 14.82 243.09 16.12 L 243.09 19.28 Q 243.09 20.58 243.84 21.35 Q 244.59 22.13 245.90 22.13 Z M 253.17 24.00 L 253.17 11.40 L 261.09 11.40 L 261.09 13.56 L 255.55 13.56 L 255.55 16.60 L 260.66 16.60 L 260.66 18.76 L 255.55 18.76 L 255.55 24.00 L 253.17 24.00 Z M 267.36 24.00 L 267.36 11.40 L 269.73 11.40 L 269.73 16.60 L 274.41 16.60 L 274.41 11.40 L 276.79 11.40 L 276.79 24.00 L 274.41 24.00 L 274.41 18.76 L 269.73 18.76 L 269.73 24.00 L 267.36 24.00 Z M 284.06 24.25 Q 281.68 24.25 280.28 22.95 Q 278.88 21.64 278.88 19.21 L 278.88 16.19 Q 278.88 13.76 280.28 12.45 Q 281.68 11.15 284.06 11.15 Q 286.44 11.15 287.84 12.45 Q 289.24 13.76 289.24 16.19 L 289.24 19.21 Q 289.24 21.64 287.84 22.95 Q 286.44 24.25 284.06 24.25 Z M 284.06 22.13 Q 285.39 22.13 286.13 21.35 Q 286.87 20.58 286.87 19.28 L 286.87 16.12 Q 286.87 14.82 286.13 14.05 Q 285.39 13.27 284.06 13.27 Q 282.75 13.27 282.00 14.05 Q 281.25 14.82 281.25 16.12 L 281.25 19.28 Q 281.25 20.58 282.00 21.35 Q 282.75 22.13 284.06 22.13 Z M 291.33 24.00 L 291.33 11.40 L 295.85 11.40 L 298.35 22.38 L 298.68 22.38 L 298.68 11.40 L 301.02 11.40 L 301.02 24.00 L 296.50 24.00 L 294.00 13.02 L 293.67 13.02 L 293.67 24.00 L 291.33 24.00 Z M 308.29 24.25 Q 305.91 24.25 304.51 22.95 Q 303.10 21.64 303.10 19.21 L 303.10 16.19 Q 303.10 13.76 304.51 12.45 Q 305.91 11.15 308.29 11.15 Q 310.66 11.15 312.07 12.45 Q 313.47 13.76 313.47 16.19 L 313.47 19.21 Q 313.47 21.64 312.07 22.95 Q 310.66 24.25 308.29 24.25 Z M 308.29 22.13 Q 309.62 22.13 310.36 21.35 Q 311.10 20.58 311.10 19.28 L 311.10 16.12 Q 311.10 14.82 310.36 14.05 Q 309.62 13.27 308.29 13.27 Q 306.97 13.27 306.23 14.05 Q 305.48 14.82 305.48 16.12 L 305.48 19.28 Q 305.48 20.58 306.23 21.35 Q 306.97 22.13 308.29 22.13 Z M 315.56 24.00 L 315.56 11.40 L 321.03 11.40 Q 322.22 11.40 323.10 11.81 Q 323.98 12.23 324.47 12.98 Q 324.95 13.74 324.95 14.77 L 324.95 14.98 Q 324.95 16.12 324.41 16.82 Q 323.87 17.52 323.08 17.84 L 323.08 18.17 Q 323.80 18.20 324.20 18.66 Q 324.59 19.12 324.59 19.88 L 324.59 24.00 L 322.22 24.00 L 322.22 20.22 Q 322.22 19.79 321.99 19.52 Q 321.77 19.25 321.25 19.25 L 317.93 19.25 L 317.93 24.00 L 315.56 24.00 Z M 317.93 17.09 L 320.78 17.09 Q 321.62 17.09 322.10 16.63 Q 322.58 16.17 322.58 15.41 L 322.58 15.23 Q 322.58 14.48 322.11 14.02 Q 321.64 13.56 320.78 13.56 L 317.93 13.56 L 317.93 17.09 Z M 331.31 24.25 Q 329.85 24.25 328.73 23.73 Q 327.62 23.21 326.99 22.24 Q 326.36 21.26 326.36 19.90 L 326.36 19.39 L 328.70 19.39 L 328.70 19.90 Q 328.70 21.03 329.40 21.60 Q 330.10 22.16 331.31 22.16 Q 332.53 22.16 333.14 21.68 Q 333.74 21.19 333.74 20.44 Q 333.74 19.91 333.44 19.59 Q 333.14 19.27 332.58 19.06 Q 332.01 18.85 331.20 18.67 L 330.79 18.58 Q 329.49 18.29 328.56 17.85 Q 327.64 17.41 327.14 16.69 Q 326.65 15.97 326.65 14.82 Q 326.65 13.67 327.20 12.85 Q 327.74 12.03 328.74 11.59 Q 329.74 11.15 331.09 11.15 Q 332.44 11.15 333.50 11.61 Q 334.55 12.07 335.15 12.97 Q 335.75 13.88 335.75 15.25 L 335.75 15.79 L 333.41 15.79 L 333.41 15.25 Q 333.41 14.53 333.14 14.09 Q 332.86 13.65 332.33 13.44 Q 331.81 13.24 331.09 13.24 Q 330.01 13.24 329.50 13.64 Q 328.99 14.05 328.99 14.75 Q 328.99 15.22 329.23 15.54 Q 329.47 15.86 329.96 16.08 Q 330.44 16.30 331.20 16.46 L 331.61 16.55 Q 332.96 16.84 333.96 17.29 Q 334.96 17.74 335.52 18.48 Q 336.08 19.21 336.08 20.36 Q 336.08 21.52 335.49 22.39 Q 334.91 23.26 333.84 23.76 Q 332.77 24.25 331.31 24.25 Z M 345.46 24.00 Q 344.34 24.00 343.50 23.59 Q 342.67 23.19 342.20 22.43 Q 341.73 21.66 341.73 20.60 Q 341.73 19.82 342.01 19.25 Q 342.29 18.67 342.77 18.30 Q 343.26 17.92 343.85 17.74 L 343.85 17.48 Q 342.95 17.21 342.38 16.55 Q 341.80 15.88 341.80 14.78 Q 341.80 13.69 342.29 12.93 Q 342.77 12.17 343.61 11.79 Q 344.45 11.40 345.53 11.40 L 347.49 11.40 L 347.49 13.27 L 345.94 13.27 Q 345.13 13.27 344.60 13.71 Q 344.07 14.14 344.07 14.98 Q 344.07 15.58 344.33 15.96 Q 344.59 16.33 345.02 16.51 Q 345.44 16.69 345.94 16.69 L 347.69 16.69 L 347.69 15.07 L 349.96 15.07 L 349.96 16.69 L 351.61 16.69 L 351.61 18.56 L 349.96 18.56 L 349.96 24.00 L 345.46 24.00 Z M 345.87 22.13 L 347.69 22.13 L 347.69 18.56 L 345.87 18.56 Q 345.08 18.56 344.54 19.01 Q 344.00 19.46 344.00 20.35 Q 344.00 21.25 344.57 21.69 Q 345.13 22.13 345.87 22.13 Z M 360.00 24.00 L 360.00 13.56 L 356.33 13.56 L 356.33 11.40 L 366.05 11.40 L 366.05 13.56 L 362.38 13.56 L 362.38 24.00 L 360.00 24.00 Z M 367.67 24.00 L 367.67 11.40 L 373.14 11.40 Q 374.33 11.40 375.21 11.81 Q 376.09 12.23 376.58 12.98 Q 377.06 13.74 377.06 14.77 L 377.06 14.98 Q 377.06 16.12 376.52 16.82 Q 375.98 17.52 375.19 17.84 L 375.19 18.17 Q 375.91 18.20 376.31 18.66 Q 376.70 19.12 376.70 19.88 L 376.70 24.00 L 374.33 24.00 L 374.33 20.22 Q 374.33 19.79 374.10 19.52 Q 373.88 19.25 373.36 19.25 L 370.04 19.25 L 370.04 24.00 L 367.67 24.00 Z M 370.04 17.09 L 372.89 17.09 Q 373.73 17.09 374.21 16.63 Q 374.69 16.17 374.69 15.41 L 374.69 15.23 Q 374.69 14.48 374.22 14.02 Q 373.75 13.56 372.89 13.56 L 370.04 13.56 L 370.04 17.09 Z M 383.94 24.25 Q 381.56 24.25 380.16 22.95 Q 378.76 21.64 378.76 19.21 L 378.76 16.19 Q 378.76 13.76 380.16 12.45 Q 381.56 11.15 383.94 11.15 Q 386.32 11.15 387.72 12.45 Q 389.12 13.76 389.12 16.19 L 389.12 19.21 Q 389.12 21.64 387.72 22.95 Q 386.32 24.25 383.94 24.25 Z M 383.94 22.13 Q 385.27 22.13 386.01 21.35 Q 386.75 20.58 386.75 19.28 L 386.75 16.12 Q 386.75 14.82 386.01 14.05 Q 385.27 13.27 383.94 13.27 Q 382.63 13.27 381.88 14.05 Q 381.13 14.82 381.13 16.12 L 381.13 19.28 Q 381.13 20.58 381.88 21.35 Q 382.63 22.13 383.94 22.13 Z M 391.21 24.00 L 391.21 11.40 L 396.40 11.40 Q 397.58 11.40 398.49 11.88 Q 399.40 12.35 399.91 13.22 Q 400.43 14.08 400.43 15.27 L 400.43 15.52 Q 400.43 16.69 399.90 17.57 Q 399.37 18.44 398.46 18.91 Q 397.55 19.39 396.40 19.39 L 393.59 19.39 L 393.59 24.00 L 391.21 24.00 Z M 393.59 17.23 L 396.16 17.23 Q 397.01 17.23 397.53 16.77 Q 398.05 16.30 398.05 15.49 L 398.05 15.31 Q 398.05 14.50 397.53 14.03 Q 397.01 13.56 396.16 13.56 L 393.59 13.56 L 393.59 17.23 Z M 402.08 24.00 L 402.08 11.40 L 404.46 11.40 L 404.46 16.60 L 409.14 16.60 L 409.14 11.40 L 411.52 11.40 L 411.52 24.00 L 409.14 24.00 L 409.14 18.76 L 404.46 18.76 L 404.46 24.00 L 402.08 24.00 Z M 413.89 24.00 L 413.89 11.40 L 416.27 11.40 L 416.27 24.00 L 413.89 24.00 Z M 418.64 24.00 L 418.64 11.40 L 426.74 11.40 L 426.74 13.56 L 421.02 13.56 L 421.02 16.57 L 426.24 16.57 L 426.24 18.73 L 421.02 18.73 L 421.02 21.84 L 426.85 21.84 L 426.85 24.00 L 418.64 24.00 Z M 432.99 24.25 Q 431.53 24.25 430.42 23.73 Q 429.30 23.21 428.67 22.24 Q 428.04 21.26 428.04 19.90 L 428.04 19.39 L 430.38 19.39 L 430.38 19.90 Q 430.38 21.03 431.08 21.60 Q 431.79 22.16 432.99 22.16 Q 434.22 22.16 434.82 21.68 Q 435.42 21.19 435.42 20.44 Q 435.42 19.91 435.12 19.59 Q 434.83 19.27 434.26 19.06 Q 433.69 18.85 432.88 18.67 L 432.47 18.58 Q 431.17 18.29 430.25 17.85 Q 429.32 17.41 428.82 16.69 Q 428.33 15.97 428.33 14.82 Q 428.33 13.67 428.88 12.85 Q 429.43 12.03 430.43 11.59 Q 431.43 11.15 432.78 11.15 Q 434.13 11.15 435.18 11.61 Q 436.23 12.07 436.83 12.97 Q 437.44 13.88 437.44 15.25 L 437.44 15.79 L 435.10 15.79 L 435.10 15.25 Q 435.10 14.53 434.82 14.09 Q 434.54 13.65 434.02 13.44 Q 433.50 13.24 432.78 13.24 Q 431.70 13.24 431.18 13.64 Q 430.67 14.05 430.67 14.75 Q 430.67 15.22 430.91 15.54 Q 431.16 15.86 431.64 16.08 Q 432.13 16.30 432.88 16.46 L 433.30 16.55 Q 434.65 16.84 435.65 17.29 Q 436.65 17.74 437.20 18.48 Q 437.76 19.21 437.76 20.36 Q 437.76 21.52 437.18 22.39 Q 436.59 23.26 435.52 23.76 Q 434.45 24.25 432.99 24.25 Z" fill="url(#headerGrad)" />
</svg>